<mxfile host="app.diagrams.net" modified="2021-05-25T07:18:27.819Z" agent="5.0 (Windows NT 10.0; Win64; x64) AppleWebKit/537.36 (KHTML, like Gecko) Chrome/90.0.4430.212 Safari/537.36 Edg/90.0.818.66" etag="AjZquMYgs3thXIIdpPQs" version="14.7.0" type="github">
  <diagram id="3MgAVrr3xZuWTfHVUKVn" name="Page-1">
    <mxGraphModel dx="1038" dy="579" grid="1" gridSize="10" guides="1" tooltips="1" connect="1" arrows="1" fold="1" page="1" pageScale="1" pageWidth="827" pageHeight="1169" math="0" shadow="0">
      <root>
        <mxCell id="0" />
        <mxCell id="1" parent="0" />
        <mxCell id="R61iIShsib2BZ26ws0nu-9" style="edgeStyle=orthogonalEdgeStyle;rounded=0;orthogonalLoop=1;jettySize=auto;html=1;exitX=0.5;exitY=1;exitDx=0;exitDy=0;entryX=0.5;entryY=0;entryDx=0;entryDy=0;" edge="1" parent="1" source="R61iIShsib2BZ26ws0nu-2" target="R61iIShsib2BZ26ws0nu-3">
          <mxGeometry relative="1" as="geometry" />
        </mxCell>
        <mxCell id="R61iIShsib2BZ26ws0nu-2" value="&lt;font style=&quot;font-size: 20px&quot;&gt;&lt;b&gt;IDLE&lt;/b&gt;&lt;/font&gt;" style="ellipse;whiteSpace=wrap;html=1;" vertex="1" parent="1">
          <mxGeometry x="110" y="100" width="120" height="80" as="geometry" />
        </mxCell>
        <mxCell id="R61iIShsib2BZ26ws0nu-10" style="edgeStyle=orthogonalEdgeStyle;rounded=0;orthogonalLoop=1;jettySize=auto;html=1;exitX=1;exitY=0.5;exitDx=0;exitDy=0;entryX=0;entryY=0.5;entryDx=0;entryDy=0;" edge="1" parent="1" source="R61iIShsib2BZ26ws0nu-3" target="R61iIShsib2BZ26ws0nu-7">
          <mxGeometry relative="1" as="geometry" />
        </mxCell>
        <mxCell id="R61iIShsib2BZ26ws0nu-3" value="&lt;font style=&quot;font-size: 20px&quot;&gt;&lt;b&gt;STATE1&lt;/b&gt;&lt;/font&gt;" style="ellipse;whiteSpace=wrap;html=1;" vertex="1" parent="1">
          <mxGeometry x="110" y="250" width="120" height="80" as="geometry" />
        </mxCell>
        <mxCell id="R61iIShsib2BZ26ws0nu-5" value="&lt;span style=&quot;font-weight: bold ; font-size: 20px&quot;&gt;STATE4&lt;/span&gt;&lt;br&gt;&lt;font style=&quot;font-size: 14px&quot;&gt;detect match&lt;/font&gt;" style="ellipse;whiteSpace=wrap;html=1;" vertex="1" parent="1">
          <mxGeometry x="620" y="250" width="120" height="80" as="geometry" />
        </mxCell>
        <mxCell id="R61iIShsib2BZ26ws0nu-12" value="" style="edgeStyle=orthogonalEdgeStyle;rounded=0;orthogonalLoop=1;jettySize=auto;html=1;" edge="1" parent="1" source="R61iIShsib2BZ26ws0nu-6" target="R61iIShsib2BZ26ws0nu-5">
          <mxGeometry relative="1" as="geometry" />
        </mxCell>
        <mxCell id="R61iIShsib2BZ26ws0nu-36" style="edgeStyle=orthogonalEdgeStyle;rounded=1;orthogonalLoop=1;jettySize=auto;html=1;exitX=0.5;exitY=0;exitDx=0;exitDy=0;entryX=0.667;entryY=0.005;entryDx=0;entryDy=0;entryPerimeter=0;" edge="1" parent="1" source="R61iIShsib2BZ26ws0nu-6" target="R61iIShsib2BZ26ws0nu-7">
          <mxGeometry relative="1" as="geometry">
            <Array as="points">
              <mxPoint x="510" y="210" />
              <mxPoint x="350" y="210" />
            </Array>
          </mxGeometry>
        </mxCell>
        <mxCell id="R61iIShsib2BZ26ws0nu-6" value="&lt;b style=&quot;font-size: 20px&quot;&gt;STATE3&lt;/b&gt;" style="ellipse;whiteSpace=wrap;html=1;" vertex="1" parent="1">
          <mxGeometry x="450" y="250" width="120" height="80" as="geometry" />
        </mxCell>
        <mxCell id="R61iIShsib2BZ26ws0nu-11" style="edgeStyle=orthogonalEdgeStyle;rounded=0;orthogonalLoop=1;jettySize=auto;html=1;exitX=1;exitY=0.5;exitDx=0;exitDy=0;entryX=0;entryY=0.5;entryDx=0;entryDy=0;" edge="1" parent="1" source="R61iIShsib2BZ26ws0nu-7" target="R61iIShsib2BZ26ws0nu-6">
          <mxGeometry relative="1" as="geometry">
            <mxPoint x="430" y="290" as="targetPoint" />
          </mxGeometry>
        </mxCell>
        <mxCell id="R61iIShsib2BZ26ws0nu-34" style="edgeStyle=orthogonalEdgeStyle;rounded=1;orthogonalLoop=1;jettySize=auto;html=1;exitX=0.5;exitY=0;exitDx=0;exitDy=0;entryX=1;entryY=0.5;entryDx=0;entryDy=0;" edge="1" parent="1" source="R61iIShsib2BZ26ws0nu-7" target="R61iIShsib2BZ26ws0nu-2">
          <mxGeometry relative="1" as="geometry" />
        </mxCell>
        <mxCell id="R61iIShsib2BZ26ws0nu-7" value="&lt;font style=&quot;font-size: 20px&quot;&gt;&lt;b&gt;STATE2&lt;/b&gt;&lt;/font&gt;" style="ellipse;whiteSpace=wrap;html=1;" vertex="1" parent="1">
          <mxGeometry x="270" y="250" width="120" height="80" as="geometry" />
        </mxCell>
        <mxCell id="R61iIShsib2BZ26ws0nu-14" value="&lt;font style=&quot;font-size: 17px&quot;&gt;1&lt;/font&gt;" style="text;html=1;strokeColor=none;fillColor=none;align=center;verticalAlign=middle;whiteSpace=wrap;rounded=0;" vertex="1" parent="1">
          <mxGeometry x="170" y="200" width="40" height="20" as="geometry" />
        </mxCell>
        <mxCell id="R61iIShsib2BZ26ws0nu-15" value="&lt;font style=&quot;font-size: 17px&quot;&gt;1&lt;/font&gt;" style="text;html=1;strokeColor=none;fillColor=none;align=center;verticalAlign=middle;whiteSpace=wrap;rounded=0;" vertex="1" parent="1">
          <mxGeometry x="390" y="260" width="40" height="20" as="geometry" />
        </mxCell>
        <mxCell id="R61iIShsib2BZ26ws0nu-16" value="&lt;font style=&quot;font-size: 17px&quot;&gt;1&lt;/font&gt;" style="text;html=1;strokeColor=none;fillColor=none;align=center;verticalAlign=middle;whiteSpace=wrap;rounded=0;" vertex="1" parent="1">
          <mxGeometry x="560" y="260" width="40" height="20" as="geometry" />
        </mxCell>
        <mxCell id="R61iIShsib2BZ26ws0nu-20" value="&lt;font style=&quot;font-size: 15px&quot;&gt;1&lt;/font&gt;" style="text;html=1;align=center;verticalAlign=middle;resizable=0;points=[];autosize=1;strokeColor=none;" vertex="1" parent="1">
          <mxGeometry x="50" y="200" width="20" height="20" as="geometry" />
        </mxCell>
        <mxCell id="R61iIShsib2BZ26ws0nu-21" value="" style="endArrow=classic;html=1;exitX=0;exitY=0.5;exitDx=0;exitDy=0;entryX=0;entryY=0.5;entryDx=0;entryDy=0;" edge="1" parent="1" source="R61iIShsib2BZ26ws0nu-3" target="R61iIShsib2BZ26ws0nu-2">
          <mxGeometry width="50" height="50" relative="1" as="geometry">
            <mxPoint x="390" y="310" as="sourcePoint" />
            <mxPoint x="440" y="260" as="targetPoint" />
            <Array as="points">
              <mxPoint x="40" y="290" />
              <mxPoint x="40" y="140" />
            </Array>
          </mxGeometry>
        </mxCell>
        <mxCell id="R61iIShsib2BZ26ws0nu-23" value="" style="endArrow=classic;html=1;entryX=0.5;entryY=1;entryDx=0;entryDy=0;" edge="1" parent="1" target="R61iIShsib2BZ26ws0nu-3">
          <mxGeometry width="50" height="50" relative="1" as="geometry">
            <mxPoint x="330" y="330" as="sourcePoint" />
            <mxPoint x="380" y="280" as="targetPoint" />
            <Array as="points">
              <mxPoint x="330" y="360" />
              <mxPoint x="170" y="360" />
            </Array>
          </mxGeometry>
        </mxCell>
        <mxCell id="R61iIShsib2BZ26ws0nu-24" value="" style="endArrow=classic;html=1;entryX=0.647;entryY=0.995;entryDx=0;entryDy=0;entryPerimeter=0;" edge="1" parent="1" target="R61iIShsib2BZ26ws0nu-7">
          <mxGeometry width="50" height="50" relative="1" as="geometry">
            <mxPoint x="680" y="330" as="sourcePoint" />
            <mxPoint x="520" y="330" as="targetPoint" />
            <Array as="points">
              <mxPoint x="680" y="360" />
              <mxPoint x="348" y="360" />
            </Array>
          </mxGeometry>
        </mxCell>
        <mxCell id="R61iIShsib2BZ26ws0nu-26" value="&lt;font style=&quot;font-size: 15px&quot;&gt;0&lt;/font&gt;" style="text;html=1;align=center;verticalAlign=middle;resizable=0;points=[];autosize=1;strokeColor=none;" vertex="1" parent="1">
          <mxGeometry x="240" y="260" width="20" height="20" as="geometry" />
        </mxCell>
        <mxCell id="R61iIShsib2BZ26ws0nu-27" value="&lt;font style=&quot;font-size: 17px&quot;&gt;1&lt;/font&gt;" style="text;html=1;strokeColor=none;fillColor=none;align=center;verticalAlign=middle;whiteSpace=wrap;rounded=0;" vertex="1" parent="1">
          <mxGeometry x="230" y="340" width="40" height="20" as="geometry" />
        </mxCell>
        <mxCell id="R61iIShsib2BZ26ws0nu-28" value="&lt;font style=&quot;font-size: 17px&quot;&gt;0&lt;/font&gt;" style="text;html=1;strokeColor=none;fillColor=none;align=center;verticalAlign=middle;whiteSpace=wrap;rounded=0;" vertex="1" parent="1">
          <mxGeometry x="500" y="340" width="40" height="20" as="geometry" />
        </mxCell>
        <mxCell id="R61iIShsib2BZ26ws0nu-29" value="" style="endArrow=classic;html=1;exitX=0.663;exitY=0.985;exitDx=0;exitDy=0;entryX=0;entryY=1;entryDx=0;entryDy=0;exitPerimeter=0;" edge="1" parent="1" source="R61iIShsib2BZ26ws0nu-5" target="R61iIShsib2BZ26ws0nu-3">
          <mxGeometry width="50" height="50" relative="1" as="geometry">
            <mxPoint x="390" y="310" as="sourcePoint" />
            <mxPoint x="440" y="260" as="targetPoint" />
            <Array as="points">
              <mxPoint x="700" y="410" />
              <mxPoint x="128" y="410" />
            </Array>
          </mxGeometry>
        </mxCell>
        <mxCell id="R61iIShsib2BZ26ws0nu-30" value="&lt;font style=&quot;font-size: 17px&quot;&gt;1&lt;br&gt;&lt;/font&gt;" style="text;html=1;strokeColor=none;fillColor=none;align=center;verticalAlign=middle;whiteSpace=wrap;rounded=0;" vertex="1" parent="1">
          <mxGeometry x="380" y="380" width="40" height="20" as="geometry" />
        </mxCell>
        <mxCell id="R61iIShsib2BZ26ws0nu-35" value="&lt;span style=&quot;font-size: 15px&quot;&gt;0&lt;/span&gt;" style="text;html=1;align=center;verticalAlign=middle;resizable=0;points=[];autosize=1;strokeColor=none;" vertex="1" parent="1">
          <mxGeometry x="310" y="200" width="20" height="20" as="geometry" />
        </mxCell>
        <mxCell id="R61iIShsib2BZ26ws0nu-37" value="&lt;font style=&quot;font-size: 17px&quot;&gt;0&lt;br&gt;&lt;/font&gt;" style="text;html=1;strokeColor=none;fillColor=none;align=center;verticalAlign=middle;whiteSpace=wrap;rounded=0;" vertex="1" parent="1">
          <mxGeometry x="400" y="190" width="40" height="20" as="geometry" />
        </mxCell>
      </root>
    </mxGraphModel>
  </diagram>
</mxfile>
